<svg width="449" height="101" viewBox="0 0 449 101" fill="none" xmlns="http://www.w3.org/2000/svg">
<rect x="61" y="34.3392" width="15" height="50" rx="7.5" transform="rotate(-25 61 34.3392)" fill="#121212"/>
<rect x="35" y="34.3392" width="15" height="50" rx="7.5" transform="rotate(-25 35 34.3392)" fill="#121212"/>
<g filter="url(#filter0_i_4_4)">
<path d="M111.182 77V30.4545H126.205C129.508 30.4545 132.265 31.0909 134.477 32.3636C136.705 33.6212 138.379 35.3333 139.5 37.5C140.636 39.6667 141.205 42.1061 141.205 44.8182C141.205 47.5303 140.644 49.9773 139.523 52.1591C138.402 54.3258 136.735 56.0455 134.523 57.3182C132.311 58.5758 129.561 59.2045 126.273 59.2045H114.455V55.3864H126.159C128.598 55.3864 130.621 54.9318 132.227 54.0227C133.833 53.0985 135.03 51.8409 135.818 50.25C136.621 48.6591 137.023 46.8485 137.023 44.8182C137.023 42.7879 136.621 40.9773 135.818 39.3864C135.03 37.7955 133.826 36.5455 132.205 35.6364C130.598 34.7273 128.561 34.2727 126.091 34.2727H115.432V77H111.182ZM155.432 30.4545V77H151.182V30.4545H155.432ZM204.261 45H199.989C199.67 43.4091 199.095 41.9394 198.261 40.5909C197.443 39.2273 196.413 38.0379 195.17 37.0227C193.928 36.0076 192.519 35.2197 190.943 34.6591C189.367 34.0985 187.663 33.8182 185.83 33.8182C182.89 33.8182 180.208 34.5833 177.784 36.1136C175.375 37.6439 173.443 39.8939 171.989 42.8636C170.549 45.8182 169.83 49.4394 169.83 53.7273C169.83 58.0455 170.549 61.6818 171.989 64.6364C173.443 67.5909 175.375 69.8333 177.784 71.3636C180.208 72.8788 182.89 73.6364 185.83 73.6364C187.663 73.6364 189.367 73.3561 190.943 72.7955C192.519 72.2348 193.928 71.4545 195.17 70.4545C196.413 69.4394 197.443 68.25 198.261 66.8864C199.095 65.5227 199.67 64.0455 199.989 62.4545H204.261C203.883 64.5909 203.17 66.5833 202.125 68.4318C201.095 70.2652 199.777 71.8712 198.17 73.25C196.58 74.6288 194.746 75.7045 192.67 76.4773C190.595 77.25 188.314 77.6364 185.83 77.6364C181.92 77.6364 178.451 76.6591 175.42 74.7045C172.39 72.7348 170.011 69.9621 168.284 66.3864C166.572 62.8106 165.716 58.5909 165.716 53.7273C165.716 48.8636 166.572 44.6439 168.284 41.0682C170.011 37.4924 172.39 34.7273 175.42 32.7727C178.451 30.803 181.92 29.8182 185.83 29.8182C188.314 29.8182 190.595 30.2045 192.67 30.9773C194.746 31.7348 196.58 32.8106 198.17 34.2045C199.777 35.5833 201.095 37.1894 202.125 39.0227C203.17 40.8561 203.883 42.8485 204.261 45ZM211.426 34.2727V30.4545H245.176V34.2727H230.426V77H226.176V34.2727H211.426ZM285.767 30.4545H290.017V61.2727C290.017 64.4394 289.275 67.2727 287.79 69.7727C286.305 72.2576 284.237 74.2197 281.585 75.6591C278.949 77.0833 275.881 77.7955 272.381 77.7955C268.896 77.7955 265.828 77.0758 263.176 75.6364C260.525 74.197 258.456 72.2348 256.972 69.75C255.487 67.2652 254.744 64.4394 254.744 61.2727V30.4545H258.994V60.9773C258.994 63.447 259.547 65.6515 260.653 67.5909C261.759 69.5152 263.312 71.0303 265.312 72.1364C267.328 73.2424 269.684 73.7955 272.381 73.7955C275.078 73.7955 277.434 73.2424 279.449 72.1364C281.464 71.0303 283.017 69.5152 284.108 67.5909C285.214 65.6515 285.767 63.447 285.767 60.9773V30.4545ZM302.369 77V30.4545H317.392C320.695 30.4545 323.453 31.053 325.665 32.25C327.892 33.4318 329.566 35.0758 330.688 37.1818C331.824 39.2727 332.392 41.6742 332.392 44.3864C332.392 47.0985 331.824 49.4924 330.688 51.5682C329.566 53.6439 327.9 55.2652 325.688 56.4318C323.475 57.5985 320.733 58.1818 317.46 58.1818H304.665V54.2955H317.347C319.771 54.2955 321.786 53.8939 323.392 53.0909C325.013 52.2879 326.218 51.1439 327.006 49.6591C327.809 48.1742 328.21 46.4167 328.21 44.3864C328.21 42.3561 327.809 40.5833 327.006 39.0682C326.203 37.5379 324.991 36.3561 323.369 35.5227C321.763 34.6894 319.733 34.2727 317.278 34.2727H306.619V77H302.369ZM322.892 56L334.347 77H329.438L318.097 56H322.892ZM342.744 77V30.4545H369.744V34.2727H346.994V51.7955H368.312V55.6136H346.994V73.1818H370.199V77H342.744ZM406.017 42.0909C405.759 39.5 404.616 37.4394 402.585 35.9091C400.555 34.3788 398.002 33.6136 394.926 33.6136C392.759 33.6136 390.85 33.9848 389.199 34.7273C387.563 35.4697 386.275 36.5 385.335 37.8182C384.411 39.1212 383.949 40.6061 383.949 42.2727C383.949 43.5 384.214 44.5758 384.744 45.5C385.275 46.4242 385.987 47.2197 386.881 47.8864C387.79 48.5379 388.79 49.0985 389.881 49.5682C390.987 50.0379 392.1 50.4318 393.222 50.75L398.131 52.1591C399.616 52.5682 401.1 53.0909 402.585 53.7273C404.07 54.3636 405.426 55.1667 406.653 56.1364C407.896 57.0909 408.888 58.2652 409.631 59.6591C410.388 61.0379 410.767 62.697 410.767 64.6364C410.767 67.1212 410.123 69.3561 408.835 71.3409C407.547 73.3258 405.699 74.9015 403.29 76.0682C400.881 77.2197 397.994 77.7955 394.631 77.7955C391.464 77.7955 388.714 77.2727 386.381 76.2273C384.047 75.1667 382.214 73.7045 380.881 71.8409C379.547 69.9773 378.797 67.8182 378.631 65.3636H382.994C383.146 67.197 383.752 68.75 384.812 70.0227C385.873 71.2955 387.252 72.2652 388.949 72.9318C390.646 73.5833 392.54 73.9091 394.631 73.9091C396.949 73.9091 399.009 73.5227 400.812 72.75C402.631 71.9621 404.055 70.8712 405.085 69.4773C406.131 68.0682 406.653 66.4318 406.653 64.5682C406.653 62.9924 406.244 61.6742 405.426 60.6136C404.608 59.5379 403.464 58.6364 401.994 57.9091C400.54 57.1818 398.85 56.5379 396.926 55.9773L391.358 54.3409C387.706 53.25 384.873 51.7424 382.858 49.8182C380.843 47.8939 379.835 45.4394 379.835 42.4545C379.835 39.9545 380.502 37.7576 381.835 35.8636C383.184 33.9545 385.002 32.4697 387.29 31.4091C389.593 30.3333 392.176 29.7955 395.04 29.7955C397.934 29.7955 400.494 30.3258 402.722 31.3864C404.949 32.447 406.714 33.9091 408.017 35.7727C409.335 37.6212 410.04 39.7273 410.131 42.0909H406.017Z" fill="#121212" style="mix-blend-mode:darken"/>
</g>
<path d="M111.182 77H107.182V81H111.182V77ZM111.182 30.4545V26.4545H107.182V30.4545H111.182ZM134.477 32.3636L132.482 35.8307L132.497 35.8388L132.511 35.8468L134.477 32.3636ZM139.5 37.5L135.947 39.3384L135.953 39.3481L135.958 39.3579L139.5 37.5ZM139.523 52.1591L143.075 53.9975L143.08 53.9874L139.523 52.1591ZM134.523 57.3182L136.5 60.7955L136.509 60.7904L136.518 60.7853L134.523 57.3182ZM114.455 59.2045H110.455V63.2045H114.455V59.2045ZM114.455 55.3864V51.3864H110.455V55.3864H114.455ZM132.227 54.0227L134.198 57.5038L134.21 57.4967L134.222 57.4896L132.227 54.0227ZM135.818 50.25L132.247 48.4476L132.24 48.4612L132.234 48.4748L135.818 50.25ZM135.818 39.3864L132.234 41.1615L132.24 41.1752L132.247 41.1888L135.818 39.3864ZM132.205 35.6364L130.234 39.1174L130.241 39.1213L130.248 39.1253L132.205 35.6364ZM115.432 34.2727V30.2727H111.432V34.2727H115.432ZM115.432 77V81H119.432V77H115.432ZM115.182 77V30.4545H107.182V77H115.182ZM111.182 34.4545H126.205V26.4545H111.182V34.4545ZM126.205 34.4545C129.009 34.4545 131.031 34.9954 132.482 35.8307L136.472 28.8965C133.5 27.1864 130.007 26.4545 126.205 26.4545V34.4545ZM132.511 35.8468C134.095 36.7414 135.202 37.8969 135.947 39.3384L143.053 35.6616C141.556 32.7698 139.314 30.501 136.444 28.8805L132.511 35.8468ZM135.958 39.3579C136.762 40.8913 137.205 42.6818 137.205 44.8182H145.205C145.205 41.5303 144.511 38.442 143.042 35.6421L135.958 39.3579ZM137.205 44.8182C137.205 46.9626 136.766 48.7723 135.965 50.3308L143.08 53.9874C144.522 51.1822 145.205 48.098 145.205 44.8182H137.205ZM135.97 50.3207C135.218 51.7741 134.108 52.9422 132.528 53.8511L136.518 60.7853C139.362 59.1487 141.585 56.8774 143.075 53.9975L135.97 50.3207ZM132.546 53.8408C131.087 54.6699 129.065 55.2045 126.273 55.2045V63.2045C130.056 63.2045 133.534 62.4816 136.5 60.7955L132.546 53.8408ZM126.273 55.2045H114.455V63.2045H126.273V55.2045ZM118.455 59.2045V55.3864H110.455V59.2045H118.455ZM114.455 59.3864H126.159V51.3864H114.455V59.3864ZM126.159 59.3864C129.074 59.3864 131.828 58.8453 134.198 57.5038L130.257 50.5417C129.415 51.0184 128.123 51.3864 126.159 51.3864V59.3864ZM134.222 57.4896C136.482 56.1892 138.248 54.3568 139.403 52.0252L132.234 48.4748C131.813 49.325 131.185 50.0077 130.232 50.5558L134.222 57.4896ZM139.389 52.0524C140.511 49.8292 141.023 47.3869 141.023 44.8182H133.023C133.023 46.3101 132.731 47.489 132.247 48.4476L139.389 52.0524ZM141.023 44.8182C141.023 42.2495 140.511 39.8072 139.389 37.5839L132.247 41.1888C132.731 42.1474 133.023 43.3263 133.023 44.8182H141.023ZM139.403 37.6112C138.24 35.263 136.45 33.4311 134.161 32.1475L130.248 39.1253C131.201 39.6598 131.821 40.328 132.234 41.1615L139.403 37.6112ZM134.175 32.1553C131.798 30.8101 129.026 30.2727 126.091 30.2727V38.2727C128.095 38.2727 129.399 38.6444 130.234 39.1174L134.175 32.1553ZM126.091 30.2727H115.432V38.2727H126.091V30.2727ZM111.432 34.2727V77H119.432V34.2727H111.432ZM115.432 73H111.182V81H115.432V73ZM155.432 30.4545H159.432V26.4545H155.432V30.4545ZM155.432 77V81H159.432V77H155.432ZM151.182 77H147.182V81H151.182V77ZM151.182 30.4545V26.4545H147.182V30.4545H151.182ZM151.432 30.4545V77H159.432V30.4545H151.432ZM155.432 73H151.182V81H155.432V73ZM155.182 77V30.4545H147.182V77H155.182ZM151.182 34.4545H155.432V26.4545H151.182V34.4545ZM204.261 45V49H209.027L208.201 44.3064L204.261 45ZM199.989 45L196.066 45.7845L196.709 49H199.989V45ZM198.261 40.5909L194.831 42.6489L194.845 42.6714L194.859 42.6937L198.261 40.5909ZM195.17 37.0227L192.64 40.1202L192.64 40.1202L195.17 37.0227ZM190.943 34.6591L192.284 30.8905L192.284 30.8905L190.943 34.6591ZM177.784 36.1136L175.649 32.7312L175.639 32.7372L177.784 36.1136ZM171.989 42.8636L168.396 41.1042L168.393 41.1118L171.989 42.8636ZM171.989 64.6364L168.393 66.3882L168.396 66.3957L168.4 66.4031L171.989 64.6364ZM177.784 71.3636L175.639 74.74L175.652 74.7479L175.664 74.7556L177.784 71.3636ZM190.943 72.7955L189.602 69.0268L189.602 69.0269L190.943 72.7955ZM195.17 70.4545L197.678 73.5706L197.69 73.5614L197.701 73.5521L195.17 70.4545ZM198.261 66.8864L194.848 64.8006L194.84 64.8144L194.831 64.8284L198.261 66.8864ZM199.989 62.4545V58.4545H196.709L196.066 61.6701L199.989 62.4545ZM204.261 62.4545L208.2 63.1529L209.033 58.4545H204.261V62.4545ZM202.125 68.4318L198.643 66.4626L198.638 66.4721L202.125 68.4318ZM198.17 73.25L195.565 70.215L195.558 70.2211L195.551 70.2272L198.17 73.25ZM192.67 76.4773L191.275 72.7286L192.67 76.4773ZM175.42 74.7045L173.24 78.0583L173.252 78.066L175.42 74.7045ZM168.284 66.3864L164.676 68.1138L164.682 68.1262L168.284 66.3864ZM168.284 41.0682L164.682 39.3283L164.676 39.3407L168.284 41.0682ZM175.42 32.7727L177.589 36.1342L177.6 36.1265L175.42 32.7727ZM192.67 30.9773L191.275 34.726L191.287 34.7304L191.299 34.7348L192.67 30.9773ZM198.17 34.2045L195.534 37.2131L195.55 37.2264L195.565 37.2395L198.17 34.2045ZM202.125 39.0227L198.638 40.9824L198.644 40.9933L198.65 41.0042L202.125 39.0227ZM204.261 41H199.989V49H204.261V41ZM203.911 44.2155C203.502 42.1689 202.754 40.2512 201.664 38.4881L194.859 42.6937C195.436 43.6276 195.839 44.6493 196.066 45.7845L203.911 44.2155ZM201.691 38.5329C200.634 36.7699 199.298 35.2298 197.701 33.9252L192.64 40.1202C193.528 40.846 194.253 41.6846 194.831 42.6489L201.691 38.5329ZM197.701 33.9252C196.089 32.6076 194.273 31.5983 192.284 30.8905L189.602 38.4277C190.764 38.8411 191.767 39.4076 192.64 40.1202L197.701 33.9252ZM192.284 30.8905C190.238 30.1627 188.076 29.8182 185.83 29.8182V37.8182C187.25 37.8182 188.497 38.0343 189.602 38.4277L192.284 30.8905ZM185.83 29.8182C182.155 29.8182 178.729 30.7868 175.649 32.7312L179.919 39.4961C181.688 38.3799 183.626 37.8182 185.83 37.8182V29.8182ZM175.639 32.7372C172.515 34.7221 170.123 37.5792 168.396 41.1042L175.581 44.6231C176.763 42.2086 178.235 40.5658 179.929 39.49L175.639 32.7372ZM168.393 41.1118C166.619 44.7521 165.83 49.0102 165.83 53.7273H173.83C173.83 49.8686 174.479 46.8843 175.585 44.6155L168.393 41.1118ZM165.83 53.7273C165.83 58.4697 166.618 62.7445 168.393 66.3882L175.585 62.8845C174.481 60.6191 173.83 57.6212 173.83 53.7273H165.83ZM168.4 66.4031C170.128 69.9134 172.52 72.7585 175.639 74.74L179.929 67.9872C178.23 66.9082 176.758 65.2684 175.577 62.8696L168.4 66.4031ZM175.664 74.7556C178.743 76.6798 182.163 77.6364 185.83 77.6364V69.6364C183.618 69.6364 181.674 69.0778 179.904 67.9716L175.664 74.7556ZM185.83 77.6364C188.076 77.6364 190.238 77.2918 192.284 76.5641L189.602 69.0269C188.497 69.4203 187.25 69.6364 185.83 69.6364V77.6364ZM192.284 76.5641C194.262 75.8604 196.07 74.8656 197.678 73.5706L192.662 67.3385C191.786 68.0435 190.776 68.6093 189.602 69.0268L192.284 76.5641ZM197.701 73.5521C199.298 72.2475 200.634 70.7073 201.691 68.9443L194.831 64.8284C194.253 65.7927 193.528 66.6313 192.64 67.357L197.701 73.5521ZM201.674 68.9722C202.756 67.2018 203.502 65.2831 203.911 63.239L196.066 61.6701C195.839 62.8078 195.433 63.8436 194.848 64.8006L201.674 68.9722ZM199.989 66.4545H204.261V58.4545H199.989V66.4545ZM200.323 61.7562C200.021 63.456 199.461 65.0174 198.643 66.4626L205.607 70.401C206.88 68.1492 207.744 65.7258 208.2 63.1529L200.323 61.7562ZM198.638 66.4721C197.838 67.8956 196.819 69.1384 195.565 70.215L200.776 76.285C202.734 74.604 204.351 72.6347 205.612 70.3915L198.638 66.4721ZM195.551 70.2272C194.34 71.2767 192.926 72.1139 191.275 72.7286L194.066 80.226C196.566 79.2952 198.819 77.9808 200.79 76.2728L195.551 70.2272ZM191.275 72.7286C189.697 73.3161 187.896 73.6364 185.83 73.6364V81.6364C188.733 81.6364 191.493 81.1839 194.066 80.226L191.275 72.7286ZM185.83 73.6364C182.622 73.6364 179.918 72.8457 177.589 71.3431L173.252 78.066C176.983 80.4725 181.219 81.6364 185.83 81.6364V73.6364ZM177.6 71.3508C175.242 69.8178 173.328 67.6316 171.886 64.6465L164.682 68.1262C166.695 72.2927 169.538 75.6519 173.241 78.0583L177.6 71.3508ZM171.892 64.6589C170.49 61.7307 169.716 58.1259 169.716 53.7273H161.716C161.716 59.0559 162.654 63.8905 164.676 68.1138L171.892 64.6589ZM169.716 53.7273C169.716 49.3286 170.49 45.7239 171.892 42.7956L164.676 39.3407C162.654 43.564 161.716 48.3986 161.716 53.7273H169.716ZM171.886 42.808C173.327 39.8251 175.238 37.6505 177.589 36.1342L173.252 29.4113C169.543 31.804 166.696 35.1597 164.682 39.3283L171.886 42.808ZM177.6 36.1265C179.929 34.6131 182.628 33.8182 185.83 33.8182V25.8182C181.212 25.8182 176.973 26.993 173.241 29.4189L177.6 36.1265ZM185.83 33.8182C187.896 33.8182 189.697 34.1384 191.275 34.726L194.066 27.2286C191.493 26.2707 188.733 25.8182 185.83 25.8182V33.8182ZM191.299 34.7348C192.932 35.3307 194.332 36.1592 195.534 37.2131L200.807 31.196C198.827 29.462 196.561 28.139 194.042 27.2197L191.299 34.7348ZM195.565 37.2395C196.819 38.3161 197.838 39.5589 198.638 40.9824L205.612 37.0631C204.351 34.8199 202.734 32.8505 200.776 31.1695L195.565 37.2395ZM198.65 41.0042C199.46 42.4241 200.02 43.9787 200.322 45.6936L208.201 44.3064C207.745 41.7182 206.881 39.288 205.6 37.0413L198.65 41.0042ZM211.426 34.2727H207.426V38.2727H211.426V34.2727ZM211.426 30.4545V26.4545H207.426V30.4545H211.426ZM245.176 30.4545H249.176V26.4545H245.176V30.4545ZM245.176 34.2727V38.2727H249.176V34.2727H245.176ZM230.426 34.2727V30.2727H226.426V34.2727H230.426ZM230.426 77V81H234.426V77H230.426ZM226.176 77H222.176V81H226.176V77ZM226.176 34.2727H230.176V30.2727H226.176V34.2727ZM215.426 34.2727V30.4545H207.426V34.2727H215.426ZM211.426 34.4545H245.176V26.4545H211.426V34.4545ZM241.176 30.4545V34.2727H249.176V30.4545H241.176ZM245.176 30.2727H230.426V38.2727H245.176V30.2727ZM226.426 34.2727V77H234.426V34.2727H226.426ZM230.426 73H226.176V81H230.426V73ZM230.176 77V34.2727H222.176V77H230.176ZM226.176 30.2727H211.426V38.2727H226.176V30.2727ZM285.767 30.4545V26.4545H281.767V30.4545H285.767ZM290.017 30.4545H294.017V26.4545H290.017V30.4545ZM287.79 69.7727L291.223 71.8246L291.229 71.8154L287.79 69.7727ZM281.585 75.6591L283.486 79.1784L283.494 79.1745L281.585 75.6591ZM263.176 75.6364L261.268 79.1518L261.268 79.1518L263.176 75.6364ZM256.972 69.75L253.538 71.8018L253.538 71.8018L256.972 69.75ZM254.744 30.4545V26.4545H250.744V30.4545H254.744ZM258.994 30.4545H262.994V26.4545H258.994V30.4545ZM260.653 67.5909L257.179 69.5726L257.185 69.5843L260.653 67.5909ZM265.312 72.1364L263.377 75.6368L263.388 75.6429L265.312 72.1364ZM279.449 72.1364L277.524 68.6298L277.524 68.6298L279.449 72.1364ZM284.108 67.5909L280.633 65.6093L280.628 65.6182L284.108 67.5909ZM285.767 34.4545H290.017V26.4545H285.767V34.4545ZM286.017 30.4545V61.2727H294.017V30.4545H286.017ZM286.017 61.2727C286.017 63.7866 285.436 65.9027 284.351 67.7301L291.229 71.8154C293.113 68.6428 294.017 65.0922 294.017 61.2727H286.017ZM284.356 67.7209C283.255 69.5633 281.726 71.0314 279.677 72.1437L283.494 79.1745C286.748 77.408 289.355 74.9518 291.223 71.8245L284.356 67.7209ZM279.684 72.1398C277.723 73.1993 275.329 73.7955 272.381 73.7955V81.7955C276.433 81.7955 280.175 80.9674 283.486 79.1784L279.684 72.1398ZM272.381 73.7955C269.458 73.7955 267.065 73.1961 265.085 72.1209L261.268 79.1518C264.59 80.9554 268.333 81.7955 272.381 81.7955V73.7955ZM265.085 72.1209C263.036 71.0087 261.506 69.5406 260.405 67.6982L253.538 71.8018C255.407 74.9291 258.014 77.3852 261.268 79.1518L265.085 72.1209ZM260.405 67.6982C259.325 65.8911 258.744 63.7869 258.744 61.2727H250.744C250.744 65.0919 251.648 68.6392 253.538 71.8018L260.405 67.6982ZM258.744 61.2727V30.4545H250.744V61.2727H258.744ZM254.744 34.4545H258.994V26.4545H254.744V34.4545ZM254.994 30.4545V60.9773H262.994V30.4545H254.994ZM254.994 60.9773C254.994 64.0663 255.693 66.967 257.179 69.5725L264.128 65.6093C263.402 64.336 262.994 62.8276 262.994 60.9773H254.994ZM257.185 69.5843C258.666 72.1607 260.758 74.1885 263.377 75.6367L267.248 68.636C265.867 67.8721 264.853 66.8696 264.121 65.5975L257.185 69.5843ZM263.388 75.6429C266.088 77.1247 269.128 77.7955 272.381 77.7955V69.7955C270.24 69.7955 268.568 69.3602 267.237 68.6298L263.388 75.6429ZM272.381 77.7955C275.634 77.7955 278.674 77.1247 281.374 75.6429L277.524 68.6298C276.194 69.3602 274.522 69.7955 272.381 69.7955V77.7955ZM281.374 75.6429C284.012 74.1944 286.116 72.1596 287.588 69.5637L280.628 65.6182C279.918 66.8707 278.916 67.8662 277.524 68.6298L281.374 75.6429ZM287.583 69.5725C289.069 66.967 289.767 64.0663 289.767 60.9773H281.767C281.767 62.8276 281.359 64.336 280.633 65.6093L287.583 69.5725ZM289.767 60.9773V30.4545H281.767V60.9773H289.767ZM302.369 77H298.369V81H302.369V77ZM302.369 30.4545V26.4545H298.369V30.4545H302.369ZM325.665 32.25L323.761 35.768L323.776 35.7758L323.79 35.7834L325.665 32.25ZM330.688 37.1818L327.157 39.0615L327.165 39.0767L327.173 39.0919L330.688 37.1818ZM330.688 51.5682L327.179 49.6474L327.173 49.6573L327.168 49.6672L330.688 51.5682ZM325.688 56.4318L323.822 52.8937L323.822 52.8937L325.688 56.4318ZM304.665 58.1818H300.665V62.1818H304.665V58.1818ZM304.665 54.2955V50.2955H300.665V54.2955H304.665ZM323.392 53.0909L321.617 49.5065L321.61 49.5098L321.603 49.5132L323.392 53.0909ZM327.006 49.6591L323.487 47.7563L323.48 47.7702L323.472 47.7842L327.006 49.6591ZM327.006 39.0682L323.464 40.9268L323.468 40.9341L323.471 40.9414L327.006 39.0682ZM323.369 35.5227L321.527 39.0732L321.534 39.0768L321.541 39.0803L323.369 35.5227ZM306.619 34.2727V30.2727H302.619V34.2727H306.619ZM306.619 77V81H310.619V77H306.619ZM322.892 56L326.404 54.0846L325.267 52H322.892V56ZM334.347 77V81H341.085L337.858 75.0846L334.347 77ZM329.438 77L325.918 78.9007L327.052 81H329.438V77ZM318.097 56V52H311.39L314.577 57.9007L318.097 56ZM306.369 77V30.4545H298.369V77H306.369ZM302.369 34.4545H317.392V26.4545H302.369V34.4545ZM317.392 34.4545C320.232 34.4545 322.288 34.971 323.761 35.768L327.568 28.732C324.617 27.135 321.159 26.4545 317.392 26.4545V34.4545ZM323.79 35.7834C325.355 36.6138 326.432 37.7005 327.157 39.0615L334.218 35.3021C332.7 32.4511 330.429 30.2499 327.54 28.7166L323.79 35.7834ZM327.173 39.0919C327.949 40.519 328.392 42.2472 328.392 44.3864H336.392C336.392 41.1013 335.699 38.0265 334.202 35.2718L327.173 39.0919ZM328.392 44.3864C328.392 46.5262 327.948 48.2417 327.179 49.6474L334.196 53.489C335.699 50.7431 336.392 47.6707 336.392 44.3864H328.392ZM327.168 49.6672C326.447 51.0026 325.377 52.0735 323.822 52.8937L327.553 59.9699C330.422 58.4568 332.686 56.2853 334.207 53.4692L327.168 49.6672ZM323.822 52.8937C322.335 53.6779 320.277 54.1818 317.46 54.1818V62.1818C321.189 62.1818 324.616 61.519 327.553 59.9699L323.822 52.8937ZM317.46 54.1818H304.665V62.1818H317.46V54.1818ZM308.665 58.1818V54.2955H300.665V58.1818H308.665ZM304.665 58.2955H317.347V50.2955H304.665V58.2955ZM317.347 58.2955C320.185 58.2955 322.86 57.8291 325.181 56.6686L321.603 49.5132C320.712 49.9588 319.357 50.2955 317.347 50.2955V58.2955ZM325.167 56.6753C327.479 55.5305 329.328 53.8161 330.539 51.534L323.472 47.7842C323.107 48.4718 322.548 49.0453 321.617 49.5065L325.167 56.6753ZM330.524 51.5619C331.701 49.3851 332.21 46.9471 332.21 44.3864H324.21C324.21 45.8862 323.916 46.9634 323.487 47.7563L330.524 51.5619ZM332.21 44.3864C332.21 41.8229 331.7 39.3846 330.54 37.195L323.471 40.9414C323.917 41.7821 324.21 42.8892 324.21 44.3864H332.21ZM330.548 37.2095C329.34 34.9089 327.509 33.1531 325.198 31.9652L321.541 39.0803C322.472 39.559 323.065 40.1669 323.464 40.9268L330.548 37.2095ZM325.212 31.9722C322.87 30.7573 320.156 30.2727 317.278 30.2727V38.2727C319.31 38.2727 320.656 38.6215 321.527 39.0732L325.212 31.9722ZM317.278 30.2727H306.619V38.2727H317.278V30.2727ZM302.619 34.2727V77H310.619V34.2727H302.619ZM306.619 73H302.369V81H306.619V73ZM319.38 57.9154L330.835 78.9154L337.858 75.0846L326.404 54.0846L319.38 57.9154ZM334.347 73H329.438V81H334.347V73ZM332.957 75.0993L321.616 54.0993L314.577 57.9007L325.918 78.9007L332.957 75.0993ZM318.097 60H322.892V52H318.097V60ZM342.744 77H338.744V81H342.744V77ZM342.744 30.4545V26.4545H338.744V30.4545H342.744ZM369.744 30.4545H373.744V26.4545H369.744V30.4545ZM369.744 34.2727V38.2727H373.744V34.2727H369.744ZM346.994 34.2727V30.2727H342.994V34.2727H346.994ZM346.994 51.7955H342.994V55.7955H346.994V51.7955ZM368.312 51.7955H372.312V47.7955H368.312V51.7955ZM368.312 55.6136V59.6136H372.312V55.6136H368.312ZM346.994 55.6136V51.6136H342.994V55.6136H346.994ZM346.994 73.1818H342.994V77.1818H346.994V73.1818ZM370.199 73.1818H374.199V69.1818H370.199V73.1818ZM370.199 77V81H374.199V77H370.199ZM346.744 77V30.4545H338.744V77H346.744ZM342.744 34.4545H369.744V26.4545H342.744V34.4545ZM365.744 30.4545V34.2727H373.744V30.4545H365.744ZM369.744 30.2727H346.994V38.2727H369.744V30.2727ZM342.994 34.2727V51.7955H350.994V34.2727H342.994ZM346.994 55.7955H368.312V47.7955H346.994V55.7955ZM364.312 51.7955V55.6136H372.312V51.7955H364.312ZM368.312 51.6136H346.994V59.6136H368.312V51.6136ZM342.994 55.6136V73.1818H350.994V55.6136H342.994ZM346.994 77.1818H370.199V69.1818H346.994V77.1818ZM366.199 73.1818V77H374.199V73.1818H366.199ZM370.199 73H342.744V81H370.199V73ZM406.017 42.0909L402.037 42.4866L402.395 46.0909H406.017V42.0909ZM402.585 35.9091L404.993 32.7148L404.993 32.7148L402.585 35.9091ZM389.199 34.7273L387.559 31.0789L387.546 31.0847L389.199 34.7273ZM385.335 37.8182L382.078 35.4968L382.073 35.504L385.335 37.8182ZM384.744 45.5L381.275 47.4907L381.275 47.4907L384.744 45.5ZM386.881 47.8864L384.489 51.0929L384.52 51.1155L384.551 51.1376L386.881 47.8864ZM389.881 49.5682L388.299 53.2421L388.308 53.2461L388.317 53.25L389.881 49.5682ZM393.222 50.75L394.325 46.9052L394.314 46.9019L393.222 50.75ZM398.131 52.1591L397.027 56.0038L397.048 56.0097L397.068 56.0154L398.131 52.1591ZM406.653 56.1364L404.174 59.2749L404.195 59.2917L404.216 59.3083L406.653 56.1364ZM409.631 59.6591L406.1 61.5395L406.112 61.5624L406.125 61.5853L409.631 59.6591ZM408.835 71.3409L405.48 69.1637L405.48 69.1637L408.835 71.3409ZM403.29 76.0682L405.015 79.6771L405.024 79.6727L405.033 79.6682L403.29 76.0682ZM386.381 76.2273L384.725 79.8687L384.735 79.8732L384.745 79.8776L386.381 76.2273ZM378.631 65.3636V61.3636H374.35L374.64 65.6346L378.631 65.3636ZM382.994 65.3636L386.981 65.0342L386.677 61.3636H382.994V65.3636ZM384.812 70.0227L381.74 72.5835L384.812 70.0227ZM388.949 72.9318L387.486 76.6548L387.501 76.6605L387.515 76.6661L388.949 72.9318ZM400.812 72.75L402.388 76.4266L402.396 76.4234L402.403 76.4202L400.812 72.75ZM405.085 69.4773L401.873 67.0939L401.869 67.0997L405.085 69.4773ZM405.426 60.6136L402.242 63.0351L402.251 63.046L402.259 63.0569L405.426 60.6136ZM401.994 57.9091L400.205 61.4868L400.213 61.4905L400.22 61.4942L401.994 57.9091ZM396.926 55.9773L395.798 59.815L395.807 59.8176L396.926 55.9773ZM391.358 54.3409L390.213 58.1735L390.222 58.1761L390.23 58.1786L391.358 54.3409ZM382.858 49.8182L385.62 46.9253L385.62 46.9253L382.858 49.8182ZM381.835 35.8636L378.568 33.5559L378.564 33.561L381.835 35.8636ZM387.29 31.4091L388.972 35.0381L388.983 35.0332L387.29 31.4091ZM402.722 31.3864L401.002 34.9978L401.002 34.9978L402.722 31.3864ZM408.017 35.7727L404.739 38.0648L404.75 38.08L404.76 38.0952L408.017 35.7727ZM410.131 42.0909V46.0909H414.287L414.128 41.9372L410.131 42.0909ZM409.997 41.6952C409.632 38.0231 407.939 34.9356 404.993 32.7148L400.178 39.1034C401.292 39.9432 401.887 40.9768 402.037 42.4866L409.997 41.6952ZM404.993 32.7148C402.133 30.5592 398.684 29.6136 394.926 29.6136V37.6136C397.32 37.6136 398.977 38.1983 400.178 39.1034L404.993 32.7148ZM394.926 29.6136C392.303 29.6136 389.817 30.0637 387.559 31.079L390.839 38.3756C391.884 37.906 393.216 37.6136 394.926 37.6136V29.6136ZM387.546 31.0847C385.34 32.0855 383.47 33.543 382.078 35.4968L388.593 40.1396C389.079 39.457 389.785 38.8539 390.852 38.3699L387.546 31.0847ZM382.073 35.504C380.647 37.5138 379.949 39.8151 379.949 42.2727H387.949C387.949 41.3971 388.175 40.7286 388.598 40.1324L382.073 35.504ZM379.949 42.2727C379.949 44.0911 380.347 45.8738 381.275 47.4907L388.214 43.5093C388.081 43.2777 387.949 42.9089 387.949 42.2727H379.949ZM381.275 47.4907C382.09 48.9117 383.177 50.1145 384.489 51.0929L389.272 44.6799C388.796 44.3249 388.459 43.9368 388.214 43.5093L381.275 47.4907ZM384.551 51.1376C385.707 51.9665 386.96 52.6658 388.299 53.2421L391.463 45.8942C390.619 45.5312 389.872 45.1093 389.211 44.6351L384.551 51.1376ZM388.317 53.25C389.572 53.7828 390.843 54.2329 392.13 54.5981L394.314 46.9019C393.358 46.6307 392.401 46.2929 391.444 45.8864L388.317 53.25ZM392.118 54.5947L397.027 56.0038L399.234 48.3143L394.325 46.9053L392.118 54.5947ZM397.068 56.0154C398.37 56.374 399.683 56.8355 401.01 57.4039L404.161 50.0507C402.517 49.3463 400.861 48.7623 399.193 48.3028L397.068 56.0154ZM401.01 57.4039C402.181 57.906 403.232 58.5307 404.174 59.2749L409.133 52.9978C407.621 51.8027 405.959 50.8212 404.161 50.0507L401.01 57.4039ZM404.216 59.3083C405.003 59.9124 405.624 60.6449 406.1 61.5395L413.161 57.7787C412.153 55.8854 410.789 54.2694 409.09 52.9644L404.216 59.3083ZM406.125 61.5853C406.491 62.2515 406.767 63.2155 406.767 64.6364H414.767C414.767 62.1785 414.285 59.8242 413.136 57.7329L406.125 61.5853ZM406.767 64.6364C406.767 66.3893 406.325 67.8605 405.48 69.1637L412.191 73.5182C413.921 70.8516 414.767 67.8532 414.767 64.6364H406.767ZM405.48 69.1637C404.639 70.4586 403.387 71.5769 401.546 72.4681L405.033 79.6682C408.011 78.2261 410.455 76.1929 412.191 73.5182L405.48 69.1637ZM401.565 72.4593C399.815 73.2954 397.548 73.7955 394.631 73.7955V81.7955C398.441 81.7955 401.946 81.144 405.015 79.6771L401.565 72.4593ZM394.631 73.7955C391.897 73.7955 389.728 73.3438 388.016 72.5769L384.745 79.8776C387.7 81.2016 391.031 81.7955 394.631 81.7955V73.7955ZM388.036 72.5858C386.264 71.7803 385.012 70.7412 384.134 69.5135L377.628 74.1684C379.416 76.6679 381.831 78.553 384.725 79.8687L388.036 72.5858ZM384.134 69.5135C383.264 68.2982 382.742 66.8633 382.621 65.0927L374.64 65.6346C374.853 68.7731 375.83 71.6563 377.628 74.1684L384.134 69.5135ZM378.631 69.3636H382.994V61.3636H378.631V69.3636ZM379.008 65.6931C379.219 68.2519 380.095 70.6095 381.74 72.5835L387.885 67.462C387.409 66.8905 387.072 66.142 386.981 65.0342L379.008 65.6931ZM381.74 72.5835C383.273 74.4234 385.228 75.7675 387.486 76.6548L390.411 69.2088C389.276 68.7628 388.473 68.1675 387.885 67.462L381.74 72.5835ZM387.515 76.6661C389.733 77.5176 392.122 77.9091 394.631 77.9091V69.9091C392.957 69.9091 391.559 69.6491 390.383 69.1976L387.515 76.6661ZM394.631 77.9091C397.394 77.9091 400.005 77.4478 402.388 76.4266L399.237 69.0734C398.014 69.5976 396.504 69.9091 394.631 69.9091V77.9091ZM402.403 76.4202C404.774 75.393 406.796 73.8925 408.302 71.8548L401.869 67.0997C401.314 67.8499 400.488 68.5313 399.222 69.0798L402.403 76.4202ZM408.298 71.8607C409.887 69.7179 410.653 67.2334 410.653 64.5682H402.653C402.653 65.6302 402.374 66.4184 401.873 67.0939L408.298 71.8607ZM410.653 64.5682C410.653 62.2703 410.043 60.0492 408.593 58.1704L402.259 63.0569C402.446 63.2993 402.653 63.7146 402.653 64.5682H410.653ZM408.61 58.1922C407.347 56.5311 405.675 55.2676 403.768 54.324L400.22 61.4942C401.253 62.0052 401.869 62.5447 402.242 63.0351L408.61 58.1922ZM403.783 54.3314C402.071 53.4753 400.149 52.75 398.045 52.1369L395.807 59.8176C397.552 60.3258 399.009 60.8884 400.205 61.4868L403.783 54.3314ZM398.054 52.1396L392.486 50.5032L390.23 58.1786L395.798 59.815L398.054 52.1396ZM392.503 50.5083C389.246 49.5352 387.042 48.2824 385.62 46.9253L380.096 52.7111C382.705 55.2024 386.167 56.9648 390.213 58.1735L392.503 50.5083ZM385.62 46.9253C384.456 45.8137 383.835 44.4333 383.835 42.4545H375.835C375.835 46.4454 377.229 49.9742 380.096 52.7111L385.62 46.9253ZM383.835 42.4545C383.835 40.71 384.285 39.3319 385.106 38.1663L378.564 33.561C376.718 36.1832 375.835 39.1991 375.835 42.4545H383.835ZM385.102 38.1714C386.016 36.8786 387.267 35.8284 388.972 35.0381L385.607 27.7801C382.737 29.111 380.352 31.0305 378.568 33.5559L385.102 38.1714ZM388.983 35.0332C390.692 34.2347 392.687 33.7955 395.04 33.7955V25.7955C391.666 25.7955 388.493 26.432 385.597 27.785L388.983 35.0332ZM395.04 33.7955C397.441 33.7955 399.397 34.2336 401.002 34.9978L404.441 27.7749C401.592 26.4179 398.426 25.7955 395.04 25.7955V33.7955ZM401.002 34.9978C402.659 35.7868 403.866 36.8159 404.739 38.0648L411.295 33.4807C409.562 31.0022 407.239 29.1071 404.441 27.7749L401.002 34.9978ZM404.76 38.0952C405.606 39.2809 406.071 40.6262 406.134 42.2446L414.128 41.9372C414.008 38.8284 413.065 35.9615 411.274 33.4503L404.76 38.0952ZM410.131 38.0909H406.017V46.0909H410.131V38.0909Z" fill="#121212"/>
<defs>
<filter id="filter0_i_4_4" x="111.182" y="29.7955" width="299.585" height="52" filterUnits="userSpaceOnUse" color-interpolation-filters="sRGB">
<feFlood flood-opacity="0" result="BackgroundImageFix"/>
<feBlend mode="normal" in="SourceGraphic" in2="BackgroundImageFix" result="shape"/>
<feColorMatrix in="SourceAlpha" type="matrix" values="0 0 0 0 0 0 0 0 0 0 0 0 0 0 0 0 0 0 127 0" result="hardAlpha"/>
<feOffset dy="4"/>
<feGaussianBlur stdDeviation="2"/>
<feComposite in2="hardAlpha" operator="arithmetic" k2="-1" k3="1"/>
<feColorMatrix type="matrix" values="0 0 0 0 0 0 0 0 0 0 0 0 0 0 0 0 0 0 0.25 0"/>
<feBlend mode="normal" in2="shape" result="effect1_innerShadow_4_4"/>
</filter>
</defs>
</svg>
