<svg width="455" height="99" viewBox="0 0 455 99" fill="none" xmlns="http://www.w3.org/2000/svg">
<g clip-path="url(#clip0_6_2)">
<rect x="57" y="29" width="15" height="56" rx="7.5" transform="rotate(-25 57 29)" fill="#121212"/>
<rect x="30" y="29" width="15" height="56" rx="7.5" transform="rotate(-25 30 29)" fill="#121212"/>
<g filter="url(#filter0_i_6_2)">
<path d="M108.182 75V28.4545H123.205C126.508 28.4545 129.265 29.0909 131.477 30.3636C133.705 31.6212 135.379 33.3333 136.5 35.5C137.636 37.6667 138.205 40.1061 138.205 42.8182C138.205 45.5303 137.644 47.9773 136.523 50.1591C135.402 52.3258 133.735 54.0455 131.523 55.3182C129.311 56.5758 126.561 57.2045 123.273 57.2045H111.455V53.3864H123.159C125.598 53.3864 127.621 52.9318 129.227 52.0227C130.833 51.0985 132.03 49.8409 132.818 48.25C133.621 46.6591 134.023 44.8485 134.023 42.8182C134.023 40.7879 133.621 38.9773 132.818 37.3864C132.03 35.7955 130.826 34.5455 129.205 33.6364C127.598 32.7273 125.561 32.2727 123.091 32.2727H112.432V75H108.182ZM152.432 28.4545V75H148.182V28.4545H152.432ZM201.261 43H196.989C196.67 41.4091 196.095 39.9394 195.261 38.5909C194.443 37.2273 193.413 36.0379 192.17 35.0227C190.928 34.0076 189.519 33.2197 187.943 32.6591C186.367 32.0985 184.663 31.8182 182.83 31.8182C179.89 31.8182 177.208 32.5833 174.784 34.1136C172.375 35.6439 170.443 37.8939 168.989 40.8636C167.549 43.8182 166.83 47.4394 166.83 51.7273C166.83 56.0455 167.549 59.6818 168.989 62.6364C170.443 65.5909 172.375 67.8333 174.784 69.3636C177.208 70.8788 179.89 71.6364 182.83 71.6364C184.663 71.6364 186.367 71.3561 187.943 70.7955C189.519 70.2348 190.928 69.4545 192.17 68.4545C193.413 67.4394 194.443 66.25 195.261 64.8864C196.095 63.5227 196.67 62.0455 196.989 60.4545H201.261C200.883 62.5909 200.17 64.5833 199.125 66.4318C198.095 68.2652 196.777 69.8712 195.17 71.25C193.58 72.6288 191.746 73.7045 189.67 74.4773C187.595 75.25 185.314 75.6364 182.83 75.6364C178.92 75.6364 175.451 74.6591 172.42 72.7045C169.39 70.7348 167.011 67.9621 165.284 64.3864C163.572 60.8106 162.716 56.5909 162.716 51.7273C162.716 46.8636 163.572 42.6439 165.284 39.0682C167.011 35.4924 169.39 32.7273 172.42 30.7727C175.451 28.803 178.92 27.8182 182.83 27.8182C185.314 27.8182 187.595 28.2045 189.67 28.9773C191.746 29.7348 193.58 30.8106 195.17 32.2045C196.777 33.5833 198.095 35.1894 199.125 37.0227C200.17 38.8561 200.883 40.8485 201.261 43ZM208.426 32.2727V28.4545H242.176V32.2727H227.426V75H223.176V32.2727H208.426ZM282.767 28.4545H287.017V59.2727C287.017 62.4394 286.275 65.2727 284.79 67.7727C283.305 70.2576 281.237 72.2197 278.585 73.6591C275.949 75.0833 272.881 75.7955 269.381 75.7955C265.896 75.7955 262.828 75.0758 260.176 73.6364C257.525 72.197 255.456 70.2348 253.972 67.75C252.487 65.2652 251.744 62.4394 251.744 59.2727V28.4545H255.994V58.9773C255.994 61.447 256.547 63.6515 257.653 65.5909C258.759 67.5152 260.312 69.0303 262.312 70.1364C264.328 71.2424 266.684 71.7955 269.381 71.7955C272.078 71.7955 274.434 71.2424 276.449 70.1364C278.464 69.0303 280.017 67.5152 281.108 65.5909C282.214 63.6515 282.767 61.447 282.767 58.9773V28.4545ZM299.369 75V28.4545H314.392C317.695 28.4545 320.453 29.053 322.665 30.25C324.892 31.4318 326.566 33.0758 327.688 35.1818C328.824 37.2727 329.392 39.6742 329.392 42.3864C329.392 45.0985 328.824 47.4924 327.688 49.5682C326.566 51.6439 324.9 53.2652 322.688 54.4318C320.475 55.5985 317.733 56.1818 314.46 56.1818H301.665V52.2955H314.347C316.771 52.2955 318.786 51.8939 320.392 51.0909C322.013 50.2879 323.218 49.1439 324.006 47.6591C324.809 46.1742 325.21 44.4167 325.21 42.3864C325.21 40.3561 324.809 38.5833 324.006 37.0682C323.203 35.5379 321.991 34.3561 320.369 33.5227C318.763 32.6894 316.733 32.2727 314.278 32.2727H303.619V75H299.369ZM319.892 54L331.347 75H326.438L315.097 54H319.892ZM339.744 75V28.4545H366.744V32.2727H343.994V49.7955H365.312V53.6136H343.994V71.1818H367.199V75H339.744ZM403.017 40.0909C402.759 37.5 401.616 35.4394 399.585 33.9091C397.555 32.3788 395.002 31.6136 391.926 31.6136C389.759 31.6136 387.85 31.9848 386.199 32.7273C384.563 33.4697 383.275 34.5 382.335 35.8182C381.411 37.1212 380.949 38.6061 380.949 40.2727C380.949 41.5 381.214 42.5758 381.744 43.5C382.275 44.4242 382.987 45.2197 383.881 45.8864C384.79 46.5379 385.79 47.0985 386.881 47.5682C387.987 48.0379 389.1 48.4318 390.222 48.75L395.131 50.1591C396.616 50.5682 398.1 51.0909 399.585 51.7273C401.07 52.3636 402.426 53.1667 403.653 54.1364C404.896 55.0909 405.888 56.2652 406.631 57.6591C407.388 59.0379 407.767 60.697 407.767 62.6364C407.767 65.1212 407.123 67.3561 405.835 69.3409C404.547 71.3258 402.699 72.9015 400.29 74.0682C397.881 75.2197 394.994 75.7955 391.631 75.7955C388.464 75.7955 385.714 75.2727 383.381 74.2273C381.047 73.1667 379.214 71.7045 377.881 69.8409C376.547 67.9773 375.797 65.8182 375.631 63.3636H379.994C380.146 65.197 380.752 66.75 381.812 68.0227C382.873 69.2955 384.252 70.2652 385.949 70.9318C387.646 71.5833 389.54 71.9091 391.631 71.9091C393.949 71.9091 396.009 71.5227 397.812 70.75C399.631 69.9621 401.055 68.8712 402.085 67.4773C403.131 66.0682 403.653 64.4318 403.653 62.5682C403.653 60.9924 403.244 59.6742 402.426 58.6136C401.608 57.5379 400.464 56.6364 398.994 55.9091C397.54 55.1818 395.85 54.5379 393.926 53.9773L388.358 52.3409C384.706 51.25 381.873 49.7424 379.858 47.8182C377.843 45.8939 376.835 43.4394 376.835 40.4545C376.835 37.9545 377.502 35.7576 378.835 33.8636C380.184 31.9545 382.002 30.4697 384.29 29.4091C386.593 28.3333 389.176 27.7955 392.04 27.7955C394.934 27.7955 397.494 28.3258 399.722 29.3864C401.949 30.447 403.714 31.9091 405.017 33.7727C406.335 35.6212 407.04 37.7273 407.131 40.0909H403.017Z" fill="#121212" style="mix-blend-mode:darken"/>
</g>
<path d="M108.182 75H104.182V79H108.182V75ZM108.182 28.4545V24.4545H104.182V28.4545H108.182ZM131.477 30.3636L129.482 33.8307L129.497 33.8388L129.511 33.8468L131.477 30.3636ZM136.5 35.5L132.947 37.3384L132.953 37.3481L132.958 37.3579L136.5 35.5ZM136.523 50.1591L140.075 51.9975L140.08 51.9874L136.523 50.1591ZM131.523 55.3182L133.5 58.7955L133.509 58.7904L133.518 58.7853L131.523 55.3182ZM111.455 57.2045H107.455V61.2045H111.455V57.2045ZM111.455 53.3864V49.3864H107.455V53.3864H111.455ZM129.227 52.0227L131.198 55.5038L131.21 55.4967L131.222 55.4896L129.227 52.0227ZM132.818 48.25L129.247 46.4476L129.24 46.4612L129.234 46.4748L132.818 48.25ZM132.818 37.3864L129.234 39.1615L129.24 39.1752L129.247 39.1888L132.818 37.3864ZM129.205 33.6364L127.234 37.1174L127.241 37.1213L127.248 37.1253L129.205 33.6364ZM112.432 32.2727V28.2727H108.432V32.2727H112.432ZM112.432 75V79H116.432V75H112.432ZM112.182 75V28.4545H104.182V75H112.182ZM108.182 32.4545H123.205V24.4545H108.182V32.4545ZM123.205 32.4545C126.009 32.4545 128.031 32.9954 129.482 33.8307L133.472 26.8965C130.5 25.1864 127.007 24.4545 123.205 24.4545V32.4545ZM129.511 33.8468C131.095 34.7414 132.202 35.8969 132.947 37.3384L140.053 33.6616C138.556 30.7698 136.314 28.501 133.444 26.8805L129.511 33.8468ZM132.958 37.3579C133.762 38.8913 134.205 40.6818 134.205 42.8182H142.205C142.205 39.5303 141.511 36.442 140.042 33.6421L132.958 37.3579ZM134.205 42.8182C134.205 44.9626 133.766 46.7723 132.965 48.3308L140.08 51.9874C141.522 49.1822 142.205 46.098 142.205 42.8182H134.205ZM132.97 48.3207C132.218 49.7741 131.108 50.9422 129.528 51.8511L133.518 58.7853C136.362 57.1487 138.585 54.8774 140.075 51.9975L132.97 48.3207ZM129.546 51.8408C128.087 52.6699 126.065 53.2045 123.273 53.2045V61.2045C127.056 61.2045 130.534 60.4816 133.5 58.7955L129.546 51.8408ZM123.273 53.2045H111.455V61.2045H123.273V53.2045ZM115.455 57.2045V53.3864H107.455V57.2045H115.455ZM111.455 57.3864H123.159V49.3864H111.455V57.3864ZM123.159 57.3864C126.074 57.3864 128.828 56.8453 131.198 55.5038L127.257 48.5417C126.415 49.0184 125.123 49.3864 123.159 49.3864V57.3864ZM131.222 55.4896C133.482 54.1892 135.248 52.3568 136.403 50.0252L129.234 46.4748C128.813 47.325 128.185 48.0077 127.232 48.5558L131.222 55.4896ZM136.389 50.0524C137.511 47.8292 138.023 45.3869 138.023 42.8182H130.023C130.023 44.3101 129.731 45.489 129.247 46.4476L136.389 50.0524ZM138.023 42.8182C138.023 40.2495 137.511 37.8072 136.389 35.5839L129.247 39.1888C129.731 40.1474 130.023 41.3263 130.023 42.8182H138.023ZM136.403 35.6112C135.24 33.263 133.45 31.4311 131.161 30.1475L127.248 37.1253C128.201 37.6598 128.821 38.328 129.234 39.1615L136.403 35.6112ZM131.175 30.1553C128.798 28.8101 126.026 28.2727 123.091 28.2727V36.2727C125.095 36.2727 126.399 36.6444 127.234 37.1174L131.175 30.1553ZM123.091 28.2727H112.432V36.2727H123.091V28.2727ZM108.432 32.2727V75H116.432V32.2727H108.432ZM112.432 71H108.182V79H112.432V71ZM152.432 28.4545H156.432V24.4545H152.432V28.4545ZM152.432 75V79H156.432V75H152.432ZM148.182 75H144.182V79H148.182V75ZM148.182 28.4545V24.4545H144.182V28.4545H148.182ZM148.432 28.4545V75H156.432V28.4545H148.432ZM152.432 71H148.182V79H152.432V71ZM152.182 75V28.4545H144.182V75H152.182ZM148.182 32.4545H152.432V24.4545H148.182V32.4545ZM201.261 43V47H206.027L205.201 42.3064L201.261 43ZM196.989 43L193.066 43.7845L193.709 47H196.989V43ZM195.261 38.5909L191.831 40.6489L191.845 40.6714L191.859 40.6937L195.261 38.5909ZM192.17 35.0227L189.64 38.1202L189.64 38.1202L192.17 35.0227ZM187.943 32.6591L189.284 28.8905L189.284 28.8905L187.943 32.6591ZM174.784 34.1136L172.649 30.7312L172.639 30.7372L174.784 34.1136ZM168.989 40.8636L165.396 39.1042L165.393 39.1118L168.989 40.8636ZM168.989 62.6364L165.393 64.3882L165.396 64.3957L165.4 64.4031L168.989 62.6364ZM174.784 69.3636L172.639 72.74L172.652 72.7479L172.664 72.7556L174.784 69.3636ZM187.943 70.7955L186.602 67.0268L186.602 67.0269L187.943 70.7955ZM192.17 68.4545L194.678 71.5706L194.69 71.5614L194.701 71.5521L192.17 68.4545ZM195.261 64.8864L191.848 62.8006L191.84 62.8144L191.831 62.8284L195.261 64.8864ZM196.989 60.4545V56.4545H193.709L193.066 59.6701L196.989 60.4545ZM201.261 60.4545L205.2 61.1529L206.033 56.4545H201.261V60.4545ZM199.125 66.4318L195.643 64.4626L195.638 64.4721L199.125 66.4318ZM195.17 71.25L192.565 68.215L192.558 68.2211L192.551 68.2272L195.17 71.25ZM189.67 74.4773L188.275 70.7286L189.67 74.4773ZM172.42 72.7045L170.24 76.0583L170.252 76.066L172.42 72.7045ZM165.284 64.3864L161.676 66.1138L161.682 66.1262L165.284 64.3864ZM165.284 39.0682L161.682 37.3283L161.676 37.3407L165.284 39.0682ZM172.42 30.7727L174.589 34.1342L174.6 34.1265L172.42 30.7727ZM189.67 28.9773L188.275 32.726L188.287 32.7304L188.299 32.7348L189.67 28.9773ZM195.17 32.2045L192.534 35.2131L192.55 35.2264L192.565 35.2395L195.17 32.2045ZM199.125 37.0227L195.638 38.9824L195.644 38.9933L195.65 39.0042L199.125 37.0227ZM201.261 39H196.989V47H201.261V39ZM200.911 42.2155C200.502 40.1689 199.754 38.2512 198.664 36.4881L191.859 40.6937C192.436 41.6276 192.839 42.6493 193.066 43.7845L200.911 42.2155ZM198.691 36.5329C197.634 34.7699 196.298 33.2298 194.701 31.9252L189.64 38.1202C190.528 38.846 191.253 39.6846 191.831 40.6489L198.691 36.5329ZM194.701 31.9252C193.089 30.6076 191.273 29.5983 189.284 28.8905L186.602 36.4277C187.764 36.8411 188.767 37.4076 189.64 38.1202L194.701 31.9252ZM189.284 28.8905C187.238 28.1627 185.076 27.8182 182.83 27.8182V35.8182C184.25 35.8182 185.497 36.0343 186.602 36.4277L189.284 28.8905ZM182.83 27.8182C179.155 27.8182 175.729 28.7868 172.649 30.7312L176.919 37.4961C178.688 36.3799 180.626 35.8182 182.83 35.8182V27.8182ZM172.639 30.7372C169.515 32.7221 167.123 35.5792 165.396 39.1042L172.581 42.6231C173.763 40.2086 175.235 38.5658 176.929 37.49L172.639 30.7372ZM165.393 39.1118C163.619 42.7521 162.83 47.0102 162.83 51.7273H170.83C170.83 47.8686 171.479 44.8843 172.585 42.6155L165.393 39.1118ZM162.83 51.7273C162.83 56.4697 163.618 60.7445 165.393 64.3882L172.585 60.8845C171.481 58.6191 170.83 55.6212 170.83 51.7273H162.83ZM165.4 64.4031C167.128 67.9134 169.52 70.7585 172.639 72.74L176.929 65.9872C175.23 64.9082 173.758 63.2684 172.577 60.8696L165.4 64.4031ZM172.664 72.7556C175.743 74.6798 179.163 75.6364 182.83 75.6364V67.6364C180.618 67.6364 178.674 67.0778 176.904 65.9716L172.664 72.7556ZM182.83 75.6364C185.076 75.6364 187.238 75.2918 189.284 74.5641L186.602 67.0269C185.497 67.4203 184.25 67.6364 182.83 67.6364V75.6364ZM189.284 74.5641C191.262 73.8604 193.07 72.8656 194.678 71.5706L189.662 65.3385C188.786 66.0435 187.776 66.6093 186.602 67.0268L189.284 74.5641ZM194.701 71.5521C196.298 70.2475 197.634 68.7073 198.691 66.9443L191.831 62.8284C191.253 63.7927 190.528 64.6313 189.64 65.357L194.701 71.5521ZM198.674 66.9722C199.756 65.2018 200.502 63.2831 200.911 61.239L193.066 59.6701C192.839 60.8078 192.433 61.8436 191.848 62.8006L198.674 66.9722ZM196.989 64.4545H201.261V56.4545H196.989V64.4545ZM197.323 59.7562C197.021 61.456 196.461 63.0174 195.643 64.4626L202.607 68.401C203.88 66.1492 204.744 63.7258 205.2 61.1529L197.323 59.7562ZM195.638 64.4721C194.838 65.8956 193.819 67.1384 192.565 68.215L197.776 74.285C199.734 72.604 201.351 70.6347 202.612 68.3915L195.638 64.4721ZM192.551 68.2272C191.34 69.2767 189.926 70.1139 188.275 70.7286L191.066 78.226C193.566 77.2952 195.819 75.9808 197.79 74.2728L192.551 68.2272ZM188.275 70.7286C186.697 71.3161 184.896 71.6364 182.83 71.6364V79.6364C185.733 79.6364 188.493 79.1839 191.066 78.226L188.275 70.7286ZM182.83 71.6364C179.622 71.6364 176.918 70.8457 174.589 69.3431L170.252 76.066C173.983 78.4725 178.219 79.6364 182.83 79.6364V71.6364ZM174.6 69.3508C172.242 67.8178 170.328 65.6316 168.886 62.6465L161.682 66.1262C163.695 70.2927 166.538 73.6519 170.241 76.0583L174.6 69.3508ZM168.892 62.6589C167.49 59.7307 166.716 56.1259 166.716 51.7273H158.716C158.716 57.0559 159.654 61.8905 161.676 66.1138L168.892 62.6589ZM166.716 51.7273C166.716 47.3286 167.49 43.7239 168.892 40.7956L161.676 37.3407C159.654 41.564 158.716 46.3986 158.716 51.7273H166.716ZM168.886 40.808C170.327 37.8251 172.238 35.6505 174.589 34.1342L170.252 27.4113C166.543 29.804 163.696 33.1597 161.682 37.3283L168.886 40.808ZM174.6 34.1265C176.929 32.6131 179.628 31.8182 182.83 31.8182V23.8182C178.212 23.8182 173.973 24.993 170.241 27.4189L174.6 34.1265ZM182.83 31.8182C184.896 31.8182 186.697 32.1384 188.275 32.726L191.066 25.2286C188.493 24.2707 185.733 23.8182 182.83 23.8182V31.8182ZM188.299 32.7348C189.932 33.3307 191.332 34.1592 192.534 35.2131L197.807 29.196C195.827 27.462 193.561 26.139 191.042 25.2197L188.299 32.7348ZM192.565 35.2395C193.819 36.3161 194.838 37.5589 195.638 38.9824L202.612 35.0631C201.351 32.8199 199.734 30.8505 197.776 29.1695L192.565 35.2395ZM195.65 39.0042C196.46 40.4241 197.02 41.9787 197.322 43.6936L205.201 42.3064C204.745 39.7182 203.881 37.288 202.6 35.0413L195.65 39.0042ZM208.426 32.2727H204.426V36.2727H208.426V32.2727ZM208.426 28.4545V24.4545H204.426V28.4545H208.426ZM242.176 28.4545H246.176V24.4545H242.176V28.4545ZM242.176 32.2727V36.2727H246.176V32.2727H242.176ZM227.426 32.2727V28.2727H223.426V32.2727H227.426ZM227.426 75V79H231.426V75H227.426ZM223.176 75H219.176V79H223.176V75ZM223.176 32.2727H227.176V28.2727H223.176V32.2727ZM212.426 32.2727V28.4545H204.426V32.2727H212.426ZM208.426 32.4545H242.176V24.4545H208.426V32.4545ZM238.176 28.4545V32.2727H246.176V28.4545H238.176ZM242.176 28.2727H227.426V36.2727H242.176V28.2727ZM223.426 32.2727V75H231.426V32.2727H223.426ZM227.426 71H223.176V79H227.426V71ZM227.176 75V32.2727H219.176V75H227.176ZM223.176 28.2727H208.426V36.2727H223.176V28.2727ZM282.767 28.4545V24.4545H278.767V28.4545H282.767ZM287.017 28.4545H291.017V24.4545H287.017V28.4545ZM284.79 67.7727L288.223 69.8246L288.229 69.8154L284.79 67.7727ZM278.585 73.6591L280.486 77.1784L280.494 77.1745L278.585 73.6591ZM260.176 73.6364L258.268 77.1518L258.268 77.1518L260.176 73.6364ZM253.972 67.75L250.538 69.8018L250.538 69.8018L253.972 67.75ZM251.744 28.4545V24.4545H247.744V28.4545H251.744ZM255.994 28.4545H259.994V24.4545H255.994V28.4545ZM257.653 65.5909L254.179 67.5726L254.185 67.5843L257.653 65.5909ZM262.312 70.1364L260.377 73.6368L260.388 73.6429L262.312 70.1364ZM276.449 70.1364L274.524 66.6298L274.524 66.6298L276.449 70.1364ZM281.108 65.5909L277.633 63.6093L277.628 63.6182L281.108 65.5909ZM282.767 32.4545H287.017V24.4545H282.767V32.4545ZM283.017 28.4545V59.2727H291.017V28.4545H283.017ZM283.017 59.2727C283.017 61.7866 282.436 63.9027 281.351 65.7301L288.229 69.8154C290.113 66.6428 291.017 63.0922 291.017 59.2727H283.017ZM281.356 65.7209C280.255 67.5633 278.726 69.0314 276.677 70.1437L280.494 77.1745C283.748 75.408 286.355 72.9518 288.223 69.8245L281.356 65.7209ZM276.684 70.1398C274.723 71.1993 272.329 71.7955 269.381 71.7955V79.7955C273.433 79.7955 277.175 78.9674 280.486 77.1784L276.684 70.1398ZM269.381 71.7955C266.458 71.7955 264.065 71.1961 262.085 70.1209L258.268 77.1518C261.59 78.9554 265.333 79.7955 269.381 79.7955V71.7955ZM262.085 70.1209C260.036 69.0087 258.506 67.5406 257.405 65.6982L250.538 69.8018C252.407 72.9291 255.014 75.3852 258.268 77.1518L262.085 70.1209ZM257.405 65.6982C256.325 63.8911 255.744 61.7869 255.744 59.2727H247.744C247.744 63.0919 248.648 66.6392 250.538 69.8018L257.405 65.6982ZM255.744 59.2727V28.4545H247.744V59.2727H255.744ZM251.744 32.4545H255.994V24.4545H251.744V32.4545ZM251.994 28.4545V58.9773H259.994V28.4545H251.994ZM251.994 58.9773C251.994 62.0663 252.693 64.967 254.179 67.5725L261.128 63.6093C260.402 62.336 259.994 60.8276 259.994 58.9773H251.994ZM254.185 67.5843C255.666 70.1607 257.758 72.1885 260.377 73.6367L264.248 66.636C262.867 65.8721 261.853 64.8696 261.121 63.5975L254.185 67.5843ZM260.388 73.6429C263.088 75.1247 266.128 75.7955 269.381 75.7955V67.7955C267.24 67.7955 265.568 67.3602 264.237 66.6298L260.388 73.6429ZM269.381 75.7955C272.634 75.7955 275.674 75.1247 278.374 73.6429L274.524 66.6298C273.194 67.3602 271.522 67.7955 269.381 67.7955V75.7955ZM278.374 73.6429C281.012 72.1944 283.116 70.1596 284.588 67.5637L277.628 63.6182C276.918 64.8707 275.916 65.8662 274.524 66.6298L278.374 73.6429ZM284.583 67.5725C286.069 64.967 286.767 62.0663 286.767 58.9773H278.767C278.767 60.8276 278.359 62.336 277.633 63.6093L284.583 67.5725ZM286.767 58.9773V28.4545H278.767V58.9773H286.767ZM299.369 75H295.369V79H299.369V75ZM299.369 28.4545V24.4545H295.369V28.4545H299.369ZM322.665 30.25L320.761 33.768L320.776 33.7758L320.79 33.7834L322.665 30.25ZM327.688 35.1818L324.157 37.0615L324.165 37.0767L324.173 37.0919L327.688 35.1818ZM327.688 49.5682L324.179 47.6474L324.173 47.6573L324.168 47.6672L327.688 49.5682ZM322.688 54.4318L320.822 50.8937L320.822 50.8937L322.688 54.4318ZM301.665 56.1818H297.665V60.1818H301.665V56.1818ZM301.665 52.2955V48.2955H297.665V52.2955H301.665ZM320.392 51.0909L318.617 47.5065L318.61 47.5098L318.603 47.5132L320.392 51.0909ZM324.006 47.6591L320.487 45.7563L320.48 45.7702L320.472 45.7842L324.006 47.6591ZM324.006 37.0682L320.464 38.9268L320.468 38.9341L320.471 38.9414L324.006 37.0682ZM320.369 33.5227L318.527 37.0732L318.534 37.0768L318.541 37.0803L320.369 33.5227ZM303.619 32.2727V28.2727H299.619V32.2727H303.619ZM303.619 75V79H307.619V75H303.619ZM319.892 54L323.404 52.0846L322.267 50H319.892V54ZM331.347 75V79H338.085L334.858 73.0846L331.347 75ZM326.438 75L322.918 76.9007L324.052 79H326.438V75ZM315.097 54V50H308.39L311.577 55.9007L315.097 54ZM303.369 75V28.4545H295.369V75H303.369ZM299.369 32.4545H314.392V24.4545H299.369V32.4545ZM314.392 32.4545C317.232 32.4545 319.288 32.971 320.761 33.768L324.568 26.732C321.617 25.135 318.159 24.4545 314.392 24.4545V32.4545ZM320.79 33.7834C322.355 34.6138 323.432 35.7005 324.157 37.0615L331.218 33.3021C329.7 30.4511 327.429 28.2499 324.54 26.7166L320.79 33.7834ZM324.173 37.0919C324.949 38.519 325.392 40.2472 325.392 42.3864H333.392C333.392 39.1013 332.699 36.0265 331.202 33.2718L324.173 37.0919ZM325.392 42.3864C325.392 44.5262 324.948 46.2417 324.179 47.6474L331.196 51.489C332.699 48.7431 333.392 45.6707 333.392 42.3864H325.392ZM324.168 47.6672C323.447 49.0026 322.377 50.0735 320.822 50.8937L324.553 57.9699C327.422 56.4568 329.686 54.2853 331.207 51.4692L324.168 47.6672ZM320.822 50.8937C319.335 51.6779 317.277 52.1818 314.46 52.1818V60.1818C318.189 60.1818 321.616 59.519 324.553 57.9699L320.822 50.8937ZM314.46 52.1818H301.665V60.1818H314.46V52.1818ZM305.665 56.1818V52.2955H297.665V56.1818H305.665ZM301.665 56.2955H314.347V48.2955H301.665V56.2955ZM314.347 56.2955C317.185 56.2955 319.86 55.8291 322.181 54.6686L318.603 47.5132C317.712 47.9588 316.357 48.2955 314.347 48.2955V56.2955ZM322.167 54.6753C324.479 53.5305 326.328 51.8161 327.539 49.534L320.472 45.7842C320.107 46.4718 319.548 47.0453 318.617 47.5065L322.167 54.6753ZM327.524 49.5619C328.701 47.3851 329.21 44.9471 329.21 42.3864H321.21C321.21 43.8862 320.916 44.9634 320.487 45.7563L327.524 49.5619ZM329.21 42.3864C329.21 39.8229 328.7 37.3846 327.54 35.195L320.471 38.9414C320.917 39.7821 321.21 40.8892 321.21 42.3864H329.21ZM327.548 35.2095C326.34 32.9089 324.509 31.1531 322.198 29.9652L318.541 37.0803C319.472 37.559 320.065 38.1669 320.464 38.9268L327.548 35.2095ZM322.212 29.9722C319.87 28.7573 317.156 28.2727 314.278 28.2727V36.2727C316.31 36.2727 317.656 36.6215 318.527 37.0732L322.212 29.9722ZM314.278 28.2727H303.619V36.2727H314.278V28.2727ZM299.619 32.2727V75H307.619V32.2727H299.619ZM303.619 71H299.369V79H303.619V71ZM316.38 55.9154L327.835 76.9154L334.858 73.0846L323.404 52.0846L316.38 55.9154ZM331.347 71H326.438V79H331.347V71ZM329.957 73.0993L318.616 52.0993L311.577 55.9007L322.918 76.9007L329.957 73.0993ZM315.097 58H319.892V50H315.097V58ZM339.744 75H335.744V79H339.744V75ZM339.744 28.4545V24.4545H335.744V28.4545H339.744ZM366.744 28.4545H370.744V24.4545H366.744V28.4545ZM366.744 32.2727V36.2727H370.744V32.2727H366.744ZM343.994 32.2727V28.2727H339.994V32.2727H343.994ZM343.994 49.7955H339.994V53.7955H343.994V49.7955ZM365.312 49.7955H369.312V45.7955H365.312V49.7955ZM365.312 53.6136V57.6136H369.312V53.6136H365.312ZM343.994 53.6136V49.6136H339.994V53.6136H343.994ZM343.994 71.1818H339.994V75.1818H343.994V71.1818ZM367.199 71.1818H371.199V67.1818H367.199V71.1818ZM367.199 75V79H371.199V75H367.199ZM343.744 75V28.4545H335.744V75H343.744ZM339.744 32.4545H366.744V24.4545H339.744V32.4545ZM362.744 28.4545V32.2727H370.744V28.4545H362.744ZM366.744 28.2727H343.994V36.2727H366.744V28.2727ZM339.994 32.2727V49.7955H347.994V32.2727H339.994ZM343.994 53.7955H365.312V45.7955H343.994V53.7955ZM361.312 49.7955V53.6136H369.312V49.7955H361.312ZM365.312 49.6136H343.994V57.6136H365.312V49.6136ZM339.994 53.6136V71.1818H347.994V53.6136H339.994ZM343.994 75.1818H367.199V67.1818H343.994V75.1818ZM363.199 71.1818V75H371.199V71.1818H363.199ZM367.199 71H339.744V79H367.199V71ZM403.017 40.0909L399.037 40.4866L399.395 44.0909H403.017V40.0909ZM399.585 33.9091L401.993 30.7148L401.993 30.7148L399.585 33.9091ZM386.199 32.7273L384.559 29.0789L384.546 29.0847L386.199 32.7273ZM382.335 35.8182L379.078 33.4968L379.073 33.504L382.335 35.8182ZM381.744 43.5L378.275 45.4907L378.275 45.4907L381.744 43.5ZM383.881 45.8864L381.489 49.0929L381.52 49.1155L381.551 49.1376L383.881 45.8864ZM386.881 47.5682L385.299 51.2421L385.308 51.2461L385.317 51.25L386.881 47.5682ZM390.222 48.75L391.325 44.9052L391.314 44.9019L390.222 48.75ZM395.131 50.1591L394.027 54.0038L394.048 54.0097L394.068 54.0154L395.131 50.1591ZM403.653 54.1364L401.174 57.2749L401.195 57.2917L401.216 57.3083L403.653 54.1364ZM406.631 57.6591L403.1 59.5395L403.112 59.5624L403.125 59.5853L406.631 57.6591ZM405.835 69.3409L402.48 67.1637L402.48 67.1637L405.835 69.3409ZM400.29 74.0682L402.015 77.6771L402.024 77.6727L402.033 77.6682L400.29 74.0682ZM383.381 74.2273L381.725 77.8687L381.735 77.8732L381.745 77.8776L383.381 74.2273ZM375.631 63.3636V59.3636H371.35L371.64 63.6346L375.631 63.3636ZM379.994 63.3636L383.981 63.0342L383.677 59.3636H379.994V63.3636ZM381.812 68.0227L378.74 70.5835L381.812 68.0227ZM385.949 70.9318L384.486 74.6548L384.501 74.6605L384.515 74.6661L385.949 70.9318ZM397.812 70.75L399.388 74.4266L399.396 74.4234L399.403 74.4202L397.812 70.75ZM402.085 67.4773L398.873 65.0939L398.869 65.0997L402.085 67.4773ZM402.426 58.6136L399.242 61.0351L399.251 61.046L399.259 61.0569L402.426 58.6136ZM398.994 55.9091L397.205 59.4868L397.213 59.4905L397.22 59.4942L398.994 55.9091ZM393.926 53.9773L392.798 57.815L392.807 57.8176L393.926 53.9773ZM388.358 52.3409L387.213 56.1735L387.222 56.1761L387.23 56.1786L388.358 52.3409ZM379.858 47.8182L382.62 44.9253L382.62 44.9253L379.858 47.8182ZM378.835 33.8636L375.568 31.5559L375.564 31.561L378.835 33.8636ZM384.29 29.4091L385.972 33.0381L385.983 33.0332L384.29 29.4091ZM399.722 29.3864L398.002 32.9978L398.002 32.9978L399.722 29.3864ZM405.017 33.7727L401.739 36.0648L401.75 36.08L401.76 36.0952L405.017 33.7727ZM407.131 40.0909V44.0909H411.287L411.128 39.9372L407.131 40.0909ZM406.997 39.6952C406.632 36.0231 404.939 32.9356 401.993 30.7148L397.178 37.1034C398.292 37.9432 398.887 38.9768 399.037 40.4866L406.997 39.6952ZM401.993 30.7148C399.133 28.5592 395.684 27.6136 391.926 27.6136V35.6136C394.32 35.6136 395.977 36.1983 397.178 37.1034L401.993 30.7148ZM391.926 27.6136C389.303 27.6136 386.817 28.0637 384.559 29.079L387.839 36.3756C388.884 35.906 390.216 35.6136 391.926 35.6136V27.6136ZM384.546 29.0847C382.34 30.0855 380.47 31.543 379.078 33.4968L385.593 38.1396C386.079 37.457 386.785 36.8539 387.852 36.3699L384.546 29.0847ZM379.073 33.504C377.647 35.5138 376.949 37.8151 376.949 40.2727H384.949C384.949 39.3971 385.175 38.7286 385.598 38.1324L379.073 33.504ZM376.949 40.2727C376.949 42.0911 377.347 43.8738 378.275 45.4907L385.214 41.5093C385.081 41.2777 384.949 40.9089 384.949 40.2727H376.949ZM378.275 45.4907C379.09 46.9117 380.177 48.1145 381.489 49.0929L386.272 42.6799C385.796 42.3249 385.459 41.9368 385.214 41.5093L378.275 45.4907ZM381.551 49.1376C382.707 49.9665 383.96 50.6658 385.299 51.2421L388.463 43.8942C387.619 43.5312 386.872 43.1093 386.211 42.6351L381.551 49.1376ZM385.317 51.25C386.572 51.7828 387.843 52.2329 389.13 52.5981L391.314 44.9019C390.358 44.6307 389.401 44.2929 388.444 43.8864L385.317 51.25ZM389.118 52.5947L394.027 54.0038L396.234 46.3143L391.325 44.9053L389.118 52.5947ZM394.068 54.0154C395.37 54.374 396.683 54.8355 398.01 55.4039L401.161 48.0507C399.517 47.3463 397.861 46.7623 396.193 46.3028L394.068 54.0154ZM398.01 55.4039C399.181 55.906 400.232 56.5307 401.174 57.2749L406.133 50.9978C404.621 49.8027 402.959 48.8212 401.161 48.0507L398.01 55.4039ZM401.216 57.3083C402.003 57.9124 402.624 58.6449 403.1 59.5395L410.161 55.7787C409.153 53.8854 407.789 52.2694 406.09 50.9644L401.216 57.3083ZM403.125 59.5853C403.491 60.2515 403.767 61.2155 403.767 62.6364H411.767C411.767 60.1785 411.285 57.8242 410.136 55.7329L403.125 59.5853ZM403.767 62.6364C403.767 64.3893 403.325 65.8605 402.48 67.1637L409.191 71.5182C410.921 68.8516 411.767 65.8532 411.767 62.6364H403.767ZM402.48 67.1637C401.639 68.4586 400.387 69.5769 398.546 70.4681L402.033 77.6682C405.011 76.2261 407.455 74.1929 409.191 71.5182L402.48 67.1637ZM398.565 70.4593C396.815 71.2954 394.548 71.7955 391.631 71.7955V79.7955C395.441 79.7955 398.946 79.144 402.015 77.6771L398.565 70.4593ZM391.631 71.7955C388.897 71.7955 386.728 71.3438 385.016 70.5769L381.745 77.8776C384.7 79.2016 388.031 79.7955 391.631 79.7955V71.7955ZM385.036 70.5858C383.264 69.7803 382.012 68.7412 381.134 67.5135L374.628 72.1684C376.416 74.6679 378.831 76.553 381.725 77.8687L385.036 70.5858ZM381.134 67.5135C380.264 66.2982 379.742 64.8633 379.621 63.0927L371.64 63.6346C371.853 66.7731 372.83 69.6563 374.628 72.1684L381.134 67.5135ZM375.631 67.3636H379.994V59.3636H375.631V67.3636ZM376.008 63.6931C376.219 66.2519 377.095 68.6095 378.74 70.5835L384.885 65.462C384.409 64.8905 384.072 64.142 383.981 63.0342L376.008 63.6931ZM378.74 70.5835C380.273 72.4234 382.228 73.7675 384.486 74.6548L387.411 67.2088C386.276 66.7628 385.473 66.1675 384.885 65.462L378.74 70.5835ZM384.515 74.6661C386.733 75.5176 389.122 75.9091 391.631 75.9091V67.9091C389.957 67.9091 388.559 67.6491 387.383 67.1976L384.515 74.6661ZM391.631 75.9091C394.394 75.9091 397.005 75.4478 399.388 74.4266L396.237 67.0734C395.014 67.5976 393.504 67.9091 391.631 67.9091V75.9091ZM399.403 74.4202C401.774 73.393 403.796 71.8925 405.302 69.8548L398.869 65.0997C398.314 65.8499 397.488 66.5313 396.222 67.0798L399.403 74.4202ZM405.298 69.8607C406.887 67.7179 407.653 65.2334 407.653 62.5682H399.653C399.653 63.6302 399.374 64.4184 398.873 65.0939L405.298 69.8607ZM407.653 62.5682C407.653 60.2703 407.043 58.0492 405.593 56.1704L399.259 61.0569C399.446 61.2993 399.653 61.7146 399.653 62.5682H407.653ZM405.61 56.1922C404.347 54.5311 402.675 53.2676 400.768 52.324L397.22 59.4942C398.253 60.0052 398.869 60.5447 399.242 61.0351L405.61 56.1922ZM400.783 52.3314C399.071 51.4753 397.149 50.75 395.045 50.1369L392.807 57.8176C394.552 58.3258 396.009 58.8884 397.205 59.4868L400.783 52.3314ZM395.054 50.1396L389.486 48.5032L387.23 56.1786L392.798 57.815L395.054 50.1396ZM389.503 48.5083C386.246 47.5352 384.042 46.2824 382.62 44.9253L377.096 50.7111C379.705 53.2024 383.167 54.9648 387.213 56.1735L389.503 48.5083ZM382.62 44.9253C381.456 43.8137 380.835 42.4333 380.835 40.4545H372.835C372.835 44.4454 374.229 47.9742 377.096 50.7111L382.62 44.9253ZM380.835 40.4545C380.835 38.71 381.285 37.3319 382.106 36.1663L375.564 31.561C373.718 34.1832 372.835 37.1991 372.835 40.4545H380.835ZM382.102 36.1714C383.016 34.8786 384.267 33.8284 385.972 33.0381L382.607 25.7801C379.737 27.111 377.352 29.0305 375.568 31.5559L382.102 36.1714ZM385.983 33.0332C387.692 32.2347 389.687 31.7955 392.04 31.7955V23.7955C388.666 23.7955 385.493 24.432 382.597 25.785L385.983 33.0332ZM392.04 31.7955C394.441 31.7955 396.397 32.2336 398.002 32.9978L401.441 25.7749C398.592 24.4179 395.426 23.7955 392.04 23.7955V31.7955ZM398.002 32.9978C399.659 33.7868 400.866 34.8159 401.739 36.0648L408.295 31.4807C406.562 29.0022 404.239 27.1071 401.441 25.7749L398.002 32.9978ZM401.76 36.0952C402.606 37.2809 403.071 38.6262 403.134 40.2446L411.128 39.9372C411.008 36.8284 410.065 33.9615 408.274 31.4503L401.76 36.0952ZM407.131 36.0909H403.017V44.0909H407.131V36.0909Z" fill="#121212"/>
</g>
<defs>
<filter id="filter0_i_6_2" x="108.182" y="27.7955" width="299.585" height="52" filterUnits="userSpaceOnUse" color-interpolation-filters="sRGB">
<feFlood flood-opacity="0" result="BackgroundImageFix"/>
<feBlend mode="normal" in="SourceGraphic" in2="BackgroundImageFix" result="shape"/>
<feColorMatrix in="SourceAlpha" type="matrix" values="0 0 0 0 0 0 0 0 0 0 0 0 0 0 0 0 0 0 127 0" result="hardAlpha"/>
<feOffset dy="4"/>
<feGaussianBlur stdDeviation="2"/>
<feComposite in2="hardAlpha" operator="arithmetic" k2="-1" k3="1"/>
<feColorMatrix type="matrix" values="0 0 0 0 0 0 0 0 0 0 0 0 0 0 0 0 0 0 0.25 0"/>
<feBlend mode="normal" in2="shape" result="effect1_innerShadow_6_2"/>
</filter>
<clipPath id="clip0_6_2">
<rect width="455" height="99" fill="white"/>
</clipPath>
</defs>
</svg>
