<svg width="455" height="99" viewBox="0 0 455 99" fill="none" xmlns="http://www.w3.org/2000/svg">
<g filter="url(#filter0_i_6_2)">
<path d="M113.727 75V28.4545H128.068C131.023 28.4545 133.553 29.0606 135.659 30.2727C137.78 31.4848 139.409 33.1439 140.545 35.25C141.682 37.3561 142.25 39.7576 142.25 42.4545C142.25 45.1212 141.682 47.5076 140.545 49.6136C139.409 51.7197 137.78 53.3864 135.659 54.6136C133.553 55.8258 131.03 56.4318 128.091 56.4318H115.727V53.7955H128.023C130.417 53.7955 132.462 53.3106 134.159 52.3409C135.856 51.3561 137.159 50.0152 138.068 48.3182C138.977 46.6061 139.432 44.6515 139.432 42.4545C139.432 40.2424 138.977 38.2803 138.068 36.5682C137.159 34.8561 135.848 33.5152 134.136 32.5455C132.439 31.5758 130.394 31.0909 128 31.0909H116.568V75H113.727ZM156.006 28.4545V75H153.165V28.4545H156.006ZM204.932 43H202.023C201.72 41.4242 201.152 39.9015 200.318 38.4318C199.485 36.947 198.409 35.6136 197.091 34.4318C195.788 33.2348 194.273 32.2879 192.545 31.5909C190.818 30.8939 188.909 30.5455 186.818 30.5455C183.758 30.5455 180.939 31.3636 178.364 33C175.803 34.6212 173.75 37.0076 172.205 40.1591C170.674 43.3106 169.909 47.1667 169.909 51.7273C169.909 56.3182 170.674 60.1894 172.205 63.3409C173.75 66.4924 175.803 68.8788 178.364 70.5C180.939 72.1061 183.758 72.9091 186.818 72.9091C188.909 72.9091 190.818 72.5682 192.545 71.8864C194.273 71.1894 195.788 70.25 197.091 69.0682C198.409 67.8712 199.485 66.5303 200.318 65.0455C201.152 63.5606 201.72 62.0303 202.023 60.4545H204.932C204.598 62.3333 203.955 64.1742 203 65.9773C202.061 67.7803 200.818 69.4167 199.273 70.8864C197.742 72.3409 195.932 73.5 193.841 74.3636C191.765 75.2121 189.424 75.6364 186.818 75.6364C182.939 75.6364 179.523 74.6515 176.568 72.6818C173.614 70.697 171.295 67.9091 169.614 64.3182C167.947 60.7273 167.114 56.5303 167.114 51.7273C167.114 46.9242 167.947 42.7273 169.614 39.1364C171.295 35.5455 173.614 32.7652 176.568 30.7955C179.523 28.8106 182.939 27.8182 186.818 27.8182C189.424 27.8182 191.765 28.25 193.841 29.1136C195.932 29.9621 197.742 31.1136 199.273 32.5682C200.818 34.0076 202.061 35.6288 203 37.4318C203.955 39.2348 204.598 41.0909 204.932 43ZM212.761 31.0909V28.4545H245.375V31.0909H230.489V75H227.648V31.0909H212.761ZM287.25 28.4545H290.091V59.2727C290.091 62.4394 289.356 65.2652 287.886 67.75C286.417 70.2197 284.386 72.1742 281.795 73.6136C279.22 75.0379 276.258 75.75 272.909 75.75C269.576 75.75 266.614 75.0379 264.023 73.6136C261.432 72.1742 259.394 70.2121 257.909 67.7273C256.439 65.2424 255.712 62.4242 255.727 59.2727V28.4545H258.568V59.1136C258.568 61.7955 259.174 64.1818 260.386 66.2727C261.614 68.3636 263.303 70.0152 265.455 71.2273C267.606 72.4242 270.091 73.0227 272.909 73.0227C275.727 73.0227 278.212 72.4242 280.364 71.2273C282.515 70.0152 284.197 68.3636 285.409 66.2727C286.636 64.1818 287.25 61.7955 287.25 59.1136V28.4545ZM303.54 75V28.4545H317.881C320.82 28.4545 323.35 29.0303 325.472 30.1818C327.593 31.3333 329.222 32.9318 330.358 34.9773C331.494 37.0076 332.062 39.3712 332.062 42.0682C332.062 44.7348 331.494 47.0833 330.358 49.1136C329.222 51.1288 327.593 52.7045 325.472 53.8409C323.366 54.9773 320.843 55.5455 317.903 55.5455H305.062V52.8864H317.835C320.229 52.8864 322.275 52.4394 323.972 51.5455C325.669 50.6515 326.972 49.4015 327.881 47.7955C328.79 46.1742 329.244 44.2652 329.244 42.0682C329.244 39.8561 328.79 37.9318 327.881 36.2955C326.972 34.6439 325.661 33.3636 323.949 32.4545C322.252 31.5455 320.206 31.0909 317.812 31.0909H306.381V75H303.54ZM322.653 53.9091L334.108 75H330.835L319.449 53.9091H322.653ZM343.415 75V28.4545H369.324V31.0909H346.256V50.3864H367.938V53.0227H346.256V72.3636H369.869V75H343.415ZM406.193 40.0909C405.951 37.197 404.769 34.8561 402.648 33.0682C400.542 31.2803 397.814 30.3864 394.466 30.3864C392.208 30.3864 390.201 30.803 388.443 31.6364C386.686 32.4697 385.307 33.6061 384.307 35.0455C383.307 36.4848 382.807 38.1364 382.807 40C382.807 41.197 383.034 42.2803 383.489 43.25C383.958 44.2045 384.617 45.0606 385.466 45.8182C386.314 46.5606 387.322 47.2121 388.489 47.7727C389.655 48.3333 390.943 48.8258 392.352 49.25L397.443 50.75C399.186 51.2803 400.792 51.8939 402.261 52.5909C403.746 53.2879 405.034 54.1212 406.125 55.0909C407.231 56.0455 408.087 57.1667 408.693 58.4545C409.314 59.7424 409.625 61.2273 409.625 62.9091C409.625 65.3636 408.989 67.5606 407.716 69.5C406.458 71.4394 404.663 72.9697 402.33 74.0909C400.011 75.197 397.277 75.75 394.125 75.75C391.125 75.75 388.511 75.2424 386.284 74.2273C384.072 73.2121 382.322 71.803 381.034 70C379.746 68.1818 379.019 66.0909 378.852 63.7273H381.761C381.913 65.6515 382.527 67.3182 383.602 68.7273C384.693 70.1212 386.14 71.197 387.943 71.9545C389.746 72.7121 391.807 73.0909 394.125 73.0909C396.625 73.0909 398.83 72.6667 400.739 71.8182C402.648 70.9545 404.14 69.7576 405.216 68.2273C406.292 66.697 406.83 64.9167 406.83 62.8864C406.83 61.25 406.443 59.8485 405.67 58.6818C404.898 57.5152 403.754 56.5076 402.239 55.6591C400.739 54.8106 398.875 54.053 396.648 53.3864L391.216 51.75C387.58 50.6439 384.799 49.1364 382.875 47.2273C380.966 45.3182 380.011 42.9394 380.011 40.0909C380.011 37.697 380.648 35.5758 381.92 33.7273C383.193 31.8636 384.92 30.4015 387.102 29.3409C389.299 28.2803 391.777 27.75 394.534 27.75C397.307 27.75 399.754 28.2879 401.875 29.3636C403.996 30.4242 405.678 31.8864 406.92 33.75C408.163 35.5985 408.852 37.7121 408.989 40.0909H406.193Z" fill="#121212" style="mix-blend-mode:darken"/>
</g>
<rect x="57" y="29" width="5" height="56" rx="2.5" transform="rotate(-25 57 29)" fill="#121212"/>
<rect x="30" y="29" width="5" height="56" rx="2.5" transform="rotate(-25 30 29)" fill="#121212"/>
<defs>
<filter id="filter0_i_6_2" x="113.727" y="27.75" width="295.898" height="52" filterUnits="userSpaceOnUse" color-interpolation-filters="sRGB">
<feFlood flood-opacity="0" result="BackgroundImageFix"/>
<feBlend mode="normal" in="SourceGraphic" in2="BackgroundImageFix" result="shape"/>
<feColorMatrix in="SourceAlpha" type="matrix" values="0 0 0 0 0 0 0 0 0 0 0 0 0 0 0 0 0 0 127 0" result="hardAlpha"/>
<feOffset dy="4"/>
<feGaussianBlur stdDeviation="2"/>
<feComposite in2="hardAlpha" operator="arithmetic" k2="-1" k3="1"/>
<feColorMatrix type="matrix" values="0 0 0 0 0 0 0 0 0 0 0 0 0 0 0 0 0 0 0.25 0"/>
<feBlend mode="normal" in2="shape" result="effect1_innerShadow_6_2"/>
</filter>
</defs>
</svg>
